<svg xmlns="http://www.w3.org/2000/svg" viewBox="0 0 320 180" role="presentation" aria-hidden="true">
<defs><clipPath id="c-eng"><rect width="320" height="180" rx="14"/></clipPath></defs>
<g clip-path="url(#c-eng)">
<rect width="320" height="180" fill="#e8f0fa"/>
<circle cx="258" cy="40" r="20" fill="#93b6e0"/>
<g stroke="#93b6e0" stroke-width="4" stroke-linecap="round">
<path d="M258 8v-6M258 78v6M226 40h-6M296 40h6M236 18l-5-5M280 62l5 5M280 18l5-5M236 62l-5 5"/>
</g>
<path d="M52 128l30-64h116l30 64z" fill="#3a6ea8"/>
<g stroke="#e8f0fa" stroke-width="3" opacity=".7">
<path d="M82 64l-30 64M120 64l-22 64M160 64v64M200 64l22 64M238 64l30 64"/>
<path d="M70 88h180M60 108h200"/>
</g>
<rect x="140" y="128" width="14" height="26" rx="3" fill="#2d5684"/>
<rect x="96" y="150" width="128" height="10" rx="5" fill="#2d5684"/>
<rect x="34" y="86" width="34" height="52" rx="6" fill="#e8f0fa" stroke="#2d5684" stroke-width="4"/>
<rect x="44" y="112" width="14" height="20" rx="2" fill="#3a6ea8"/>
<path d="M44 78h14" stroke="#2d5684" stroke-width="5" stroke-linecap="round"/>
</g>
</svg>
