<svg xmlns="http://www.w3.org/2000/svg" viewBox="0 0 320 180" role="presentation" aria-hidden="true">
<defs><clipPath id="c-math"><rect width="320" height="180" rx="14"/></clipPath></defs>
<g clip-path="url(#c-math)">
<rect width="320" height="180" fill="#fbe9f0"/>
<circle cx="76" cy="90" r="46" fill="#f6d6e2"/>
<path d="M76 44a46 46 0 0 1 46 46H76z" fill="#bf4a72"/>
<path d="M76 90h46a46 46 0 0 1-20 38z" fill="#e3a0ba"/>
<circle cx="76" cy="90" r="18" fill="#fbe9f0"/>
<g fill="#bf4a72">
<rect x="160" y="106" width="22" height="42" rx="4"/>
<rect x="192" y="76" width="22" height="72" rx="4"/>
<rect x="224" y="94" width="22" height="54" rx="4"/>
<rect x="256" y="52" width="22" height="96" rx="4"/>
</g>
<path d="M160 66l32-22 32 14 32-30" fill="none" stroke="#983a5b" stroke-width="4"
      stroke-linecap="round" stroke-linejoin="round" stroke-dasharray="7 6"/>
<g fill="#983a5b">
<circle cx="160" cy="66" r="5"/><circle cx="192" cy="44" r="5"/>
<circle cx="224" cy="58" r="5"/><circle cx="256" cy="28" r="5"/>
</g>
</g>
</svg>
